<?xml version="1.0" encoding="UTF-8"?>
<svg id="Layer_1" data-name="Layer 1" xmlns="http://www.w3.org/2000/svg" viewBox="0 0 764.05 166.02">
  <defs>
    <style>
      .cls-1 {
        fill: #000;
        stroke-width: 0px;
      }
    </style>
  </defs>
  <g>
    <path class="cls-1" d="M189.05,53.01c15.31,0,26.6,11.71,26.6,26.39s-11.22,26.39-26.6,26.39-26.6-11.57-26.6-26.39,11.22-26.39,26.6-26.39ZM189.05,95.84c9.17,0,15.66-7.34,15.66-16.44s-6.49-16.44-15.66-16.44-15.66,7.41-15.66,16.44,6.49,16.44,15.66,16.44Z"/>
    <path class="cls-1" d="M223.98,102.9v-10.44c3.53,1.83,8.18,3.39,12.77,3.67,1.62.07,3.17,0,4.52-.28,3.88-.56,6.14-2.05,6.14-4.52,0-3.39-3.03-5.15-10.02-7.69-8.89-3.25-14.11-6.98-14.11-15.8s7.48-14.82,18.42-14.82c5.08,0,10.09,1.13,13.26,2.54v10.02c-2.96-1.76-7.76-3.1-12.42-3.1-5.22,0-8.61,2.05-8.61,5.29,0,2.96,2.75,5.01,9.67,7.62,8.89,3.46,14.39,7.2,14.39,15.73,0,9.17-6.91,14.68-18.91,14.68-5.79,0-11.43-1.27-15.1-2.89Z"/>
    <path class="cls-1" d="M286.99,53.22h.42l24.7,51.58h-11.36l-4.09-8.96h-18.98l-3.95,8.96h-11.36l24.62-51.58ZM293.41,88.22c-2.33-5.29-4.59-10.65-6.14-15.1-1.48,3.53-4.16,10.3-6.28,15.1h12.42Z"/>
    <path class="cls-1" d="M333.14,78.55l-2.68-2.33v28.58h-10.37v-51.58h.21l24.2,24.41,24.2-24.41h.21v51.58h-10.37v-28.58l-2.68,2.33c-3.74,4.09-7.55,8.18-11.36,12.21-3.81-4.02-7.55-8.11-11.36-12.21Z"/>
    <path class="cls-1" d="M401.52,53.22h.42l24.69,51.58h-11.36l-4.09-8.96h-18.98l-3.95,8.96h-11.36l24.62-51.58ZM407.94,88.22c-2.33-5.29-4.59-10.65-6.14-15.1-1.48,3.53-4.16,10.3-6.28,15.1h12.42Z"/>
    <path class="cls-1" d="M462.98,78.55l-2.68-2.33v28.58h-10.37v-51.58h.21l24.2,24.41,24.2-24.41h.21v51.58h-10.37v-28.58l-2.68,2.33c-3.74,4.09-7.55,8.18-11.36,12.21-3.81-4.02-7.55-8.11-11.36-12.21Z"/>
    <path class="cls-1" d="M535.94,53.01c15.31,0,26.6,11.71,26.6,26.39s-11.22,26.39-26.6,26.39-26.6-11.57-26.6-26.39,11.22-26.39,26.6-26.39ZM535.94,95.84c9.17,0,15.66-7.34,15.66-16.44s-6.49-16.44-15.66-16.44-15.66,7.41-15.66,16.44,6.49,16.44,15.66,16.44Z"/>
    <path class="cls-1" d="M614.97,86.32c0,11.85-7.83,19.47-21.24,19.47s-21.24-7.62-21.24-19.47v-32.31h10.86v31.26c0,6.63,3.74,10.58,10.37,10.58s10.37-3.95,10.37-10.58v-31.26h10.86v32.31Z"/>
    <path class="cls-1" d="M625.77,102.9v-10.44c3.53,1.83,8.18,3.39,12.77,3.67,1.62.07,3.17,0,4.52-.28,3.88-.56,6.14-2.05,6.14-4.52,0-3.39-3.03-5.15-10.02-7.69-8.89-3.25-14.11-6.98-14.11-15.8s7.48-14.82,18.42-14.82c5.08,0,10.09,1.13,13.27,2.54v10.02c-2.96-1.76-7.76-3.1-12.42-3.1-5.22,0-8.61,2.05-8.61,5.29,0,2.96,2.75,5.01,9.67,7.62,8.89,3.46,14.39,7.2,14.39,15.73,0,9.17-6.91,14.68-18.91,14.68-5.79,0-11.43-1.27-15.1-2.89Z"/>
    <path class="cls-1" d="M667.69,102.9v-10.44c3.53,1.83,8.18,3.39,12.77,3.67,1.62.07,3.17,0,4.52-.28,3.88-.56,6.14-2.05,6.14-4.52,0-3.39-3.03-5.15-10.02-7.69-8.89-3.25-14.11-6.98-14.11-15.8s7.48-14.82,18.42-14.82c5.08,0,10.09,1.13,13.27,2.54v10.02c-2.96-1.76-7.76-3.1-12.42-3.1-5.22,0-8.61,2.05-8.61,5.29,0,2.96,2.75,5.01,9.67,7.62,8.89,3.46,14.39,7.2,14.39,15.73,0,9.17-6.91,14.68-18.91,14.68-5.79,0-11.43-1.27-15.1-2.89Z"/>
    <path class="cls-1" d="M730.7,53.22h.42l24.69,51.58h-11.36l-4.09-8.96h-18.98l-3.95,8.96h-11.36l24.62-51.58ZM737.12,88.22c-2.33-5.29-4.59-10.65-6.14-15.1-1.48,3.53-4.16,10.3-6.28,15.1h12.42Z"/>
  </g>
  <path class="cls-1" d="M75.98,15.13C40.54,15.13,11.7,43.96,11.7,79.4s28.83,64.28,64.28,64.28,64.28-28.83,64.28-64.28S111.42,15.13,75.98,15.13ZM42.97,120.96l7.97-49.66,6.79,8.6,18.25,21.06,18.25-21.06,6.79-8.6,7.97,49.66c-9.07,7.22-20.54,11.54-33.01,11.54s-23.94-4.32-33.01-11.54ZM119.2,110.21l-10.2-61.64h-.2l-32.82,36.45-32.82-36.45h-.2l-10.2,61.64c-6.21-8.69-9.88-19.33-9.88-30.81,0-29.28,23.82-53.1,53.1-53.1s53.1,23.82,53.1,53.1c0,11.48-3.66,22.11-9.88,30.81Z"/>
</svg>