<?xml version="1.0" encoding="UTF-8"?><svg id="Layer_1" xmlns="http://www.w3.org/2000/svg" viewBox="0 0 881.21 204.95"><path d="M104.94,31.78c-38.98,0-70.7,31.72-70.7,70.7s31.72,70.7,70.7,70.7,70.7-31.72,70.7-70.7S143.93,31.78,104.94,31.78ZM153,146.69l-13.17-76.01h-.11l-34.78,48.62v9.97l31.14-43.96,11.49,66.49h.15c-11.46,9.95-26.41,15.98-42.77,15.98s-31.31-6.03-42.77-15.98h.15l11.49-66.49,31.14,43.96v-9.97l-34.78-48.62h-.11l-13.17,76.01c-10.71-11.63-17.25-27.16-17.25-44.21,0-36.07,29.24-65.31,65.31-65.31s65.31,29.24,65.31,65.31c0,17.06-6.54,32.58-17.25,44.21Z"/><path d="M241.73,47.15c15.08,0,27.01,11.79,27.01,27.23s-11.71,27.23-27.01,27.23-27.01-11.79-27.01-27.23,11.71-27.23,27.01-27.23ZM241.73,95.1c11.42,0,19.84-8.78,19.84-20.72s-8.42-20.72-19.84-20.72-19.91,8.78-19.91,20.72,8.49,20.72,19.91,20.72Z"/><path d="M280.53,98.54v-6.95c3.73,1.83,9.15,3.73,14.86,3.73,6.59,0,11.49-2.71,11.49-7.54s-2.85-7.54-11.71-10.61c-10.1-3.51-14.86-7.83-14.86-15.88,0-8.93,7.47-14.13,17.57-14.13,5.27,0,10.18,1.39,13.1,2.71v6.66c-2.93-1.54-7.98-3.07-12.74-3.07-6.52,0-11.05,2.93-11.05,7.61,0,4.32,2.56,7.39,11.57,10.54,10.1,3.66,15.01,7.76,15.01,15.67,0,9-6.95,14.35-18.01,14.35-6.08,0-11.71-1.54-15.23-3.07Z"/><path d="M346.34,47.15h.15l24.3,53.58h-7.47l-5.2-11.71h-23.5l-5.12,11.71h-7.47l24.3-53.58ZM355.56,83.24c-3.59-8.05-6.3-14.35-9.15-21.81-2.93,7.47-5.64,13.76-9.22,21.81h18.37Z"/><path d="M391.65,67.13l-1.39-1.68v35.28h-6.81v-53.58h.07l23.86,29.21,23.94-29.21h.07v53.58h-6.81v-35.28l-1.39,1.68-15.81,19.11-15.74-19.11Z"/><path d="M468.36,47.15h.15l24.3,53.58h-7.47l-5.2-11.71h-23.5l-5.12,11.71h-7.47l24.3-53.58ZM477.59,83.24c-3.59-8.05-6.3-14.35-9.15-21.81-2.93,7.47-5.64,13.76-9.22,21.81h18.37Z"/><path d="M532.86,67.13l-1.39-1.68v35.28h-6.81v-53.58h.07l23.86,29.21,23.94-29.21h.07v53.58h-6.81v-35.28l-1.39,1.68-15.81,19.11-15.74-19.11Z"/><path d="M615.21,47.15c15.08,0,27.01,11.79,27.01,27.23s-11.71,27.23-27.01,27.23-27.01-11.79-27.01-27.23,11.71-27.23,27.01-27.23ZM615.21,95.1c11.42,0,19.84-8.78,19.84-20.72s-8.42-20.72-19.84-20.72-19.91,8.78-19.91,20.72,8.49,20.72,19.91,20.72Z"/><path d="M697.34,82.29c0,12.08-7.61,19.33-20.35,19.33s-20.28-7.25-20.28-19.33v-34.26h7.03v33.75c0,8.35,4.98,13.32,13.25,13.32s13.32-4.98,13.32-13.32v-33.75h7.03v34.26Z"/><path d="M712.05,98.54v-6.95c3.73,1.83,9.15,3.73,14.86,3.73,6.59,0,11.49-2.71,11.49-7.54s-2.86-7.54-11.71-10.61c-10.1-3.51-14.86-7.83-14.86-15.88,0-8.93,7.47-14.13,17.57-14.13,5.27,0,10.17,1.39,13.1,2.71v6.66c-2.93-1.54-7.98-3.07-12.74-3.07-6.51,0-11.05,2.93-11.05,7.61,0,4.32,2.56,7.39,11.57,10.54,10.1,3.66,15.01,7.76,15.01,15.67,0,9-6.95,14.35-18.01,14.35-6.08,0-11.71-1.54-15.23-3.07Z"/><path d="M756.71,98.54v-6.95c3.73,1.83,9.15,3.73,14.86,3.73,6.59,0,11.49-2.71,11.49-7.54s-2.85-7.54-11.71-10.61c-10.1-3.51-14.86-7.83-14.86-15.88,0-8.93,7.47-14.13,17.57-14.13,5.27,0,10.18,1.39,13.1,2.71v6.66c-2.93-1.54-7.98-3.07-12.74-3.07-6.52,0-11.05,2.93-11.05,7.61,0,4.32,2.56,7.39,11.57,10.54,10.1,3.66,15.01,7.76,15.01,15.67,0,9-6.95,14.35-18.01,14.35-6.08,0-11.71-1.54-15.23-3.07Z"/><path d="M822.52,47.15h.15l24.3,53.58h-7.47l-5.2-11.71h-23.5l-5.12,11.71h-7.47l24.3-53.58ZM831.74,83.24c-3.59-8.05-6.29-14.35-9.15-21.81-2.93,7.47-5.64,13.76-9.22,21.81h18.37Z"/><path d="M219,121.08h4.9v33.88h16.24v4.12h-21.14v-37.99Z"/><path d="M247.41,146.33c.11,6.71,4.4,9.47,9.36,9.47,3.55,0,5.69-.62,7.55-1.41l.85,3.55c-1.75.79-4.74,1.69-9.08,1.69-8.4,0-13.42-5.53-13.42-13.76s4.85-14.71,12.8-14.71c8.91,0,11.27,7.84,11.27,12.85,0,1.01-.11,1.8-.17,2.31h-19.17ZM261.95,142.78c.06-3.16-1.3-8.06-6.88-8.06-5.02,0-7.22,4.62-7.61,8.06h14.49Z"/><path d="M288,159.07l-.4-3.44h-.17c-1.52,2.14-4.45,4.06-8.34,4.06-5.52,0-8.34-3.89-8.34-7.84,0-6.6,5.86-10.2,16.4-10.15v-.56c0-2.25-.62-6.31-6.2-6.31-2.54,0-5.19.79-7.1,2.03l-1.13-3.27c2.25-1.47,5.52-2.42,8.96-2.42,8.34,0,10.37,5.69,10.37,11.16v10.2c0,2.37.11,4.68.45,6.54h-4.51ZM287.27,145.15c-5.41-.11-11.56.85-11.56,6.14,0,3.21,2.14,4.74,4.68,4.74,3.55,0,5.81-2.26,6.6-4.57.17-.51.28-1.07.28-1.58v-4.74Z"/><path d="M323.63,119.05v32.98c0,2.42.06,5.19.23,7.05h-4.45l-.23-4.74h-.11c-1.52,3.04-4.85,5.35-9.3,5.35-6.6,0-11.67-5.58-11.67-13.87-.06-9.08,5.58-14.66,12.23-14.66,4.17,0,6.99,1.97,8.23,4.17h.11v-16.29h4.96ZM318.67,142.89c0-.62-.06-1.47-.22-2.09-.73-3.16-3.44-5.75-7.16-5.75-5.13,0-8.17,4.51-8.17,10.54,0,5.52,2.71,10.09,8.06,10.09,3.33,0,6.37-2.2,7.27-5.92.17-.68.22-1.35.22-2.14v-4.74Z"/><path d="M334.63,146.33c.11,6.71,4.4,9.47,9.36,9.47,3.55,0,5.69-.62,7.55-1.41l.85,3.55c-1.75.79-4.74,1.69-9.08,1.69-8.4,0-13.42-5.53-13.42-13.76s4.85-14.71,12.8-14.71c8.91,0,11.27,7.84,11.27,12.85,0,1.01-.11,1.8-.17,2.31h-19.17ZM349.18,142.78c.06-3.16-1.3-8.06-6.88-8.06-5.02,0-7.22,4.62-7.61,8.06h14.49Z"/><path d="M360.12,140.3c0-3.21-.06-5.97-.23-8.51h4.34l.17,5.36h.22c1.24-3.66,4.23-5.98,7.55-5.98.56,0,.96.06,1.41.17v4.68c-.51-.11-1.01-.17-1.69-.17-3.5,0-5.97,2.65-6.65,6.37-.11.68-.23,1.47-.23,2.31v14.54h-4.9v-18.77Z"/><path d="M396.03,124.12c.06,1.69-1.18,3.04-3.16,3.04-1.75,0-2.99-1.35-2.99-3.04s1.3-3.1,3.1-3.1,3.04,1.35,3.04,3.1ZM390.51,159.07v-27.28h4.96v27.28h-4.96Z"/><path d="M403.7,139.17c0-2.82-.06-5.13-.23-7.38h4.4l.28,4.51h.11c1.35-2.59,4.51-5.13,9.02-5.13,3.78,0,9.64,2.25,9.64,11.61v16.29h-4.96v-15.73c0-4.4-1.63-8.06-6.31-8.06-3.27,0-5.81,2.31-6.65,5.07-.23.62-.34,1.47-.34,2.31v16.4h-4.96v-19.9Z"/><path d="M452.02,121.08v22.49c0,8.51,3.78,12.12,8.85,12.12,5.64,0,9.25-3.72,9.25-12.12v-22.49h4.96v22.15c0,11.67-6.14,16.46-14.37,16.46-7.78,0-13.64-4.45-13.64-16.24v-22.38h4.96Z"/><path d="M483.42,140.69c0-3.5-.11-6.31-.23-8.91h4.45l.23,4.68h.11c2.03-3.33,5.24-5.3,9.7-5.3,6.6,0,11.56,5.58,11.56,13.87,0,9.81-5.97,14.66-12.4,14.66-3.61,0-6.77-1.58-8.4-4.28h-.11v14.83h-4.9v-29.54ZM488.33,147.97c0,.73.11,1.41.23,2.03.9,3.44,3.89,5.81,7.44,5.81,5.24,0,8.29-4.28,8.29-10.54,0-5.47-2.88-10.15-8.12-10.15-3.38,0-6.54,2.42-7.5,6.15-.17.62-.34,1.35-.34,2.03v4.68Z"/><path d="M515.5,140.69c0-3.5-.11-6.31-.23-8.91h4.45l.23,4.68h.11c2.03-3.33,5.24-5.3,9.7-5.3,6.6,0,11.56,5.58,11.56,13.87,0,9.81-5.97,14.66-12.4,14.66-3.61,0-6.77-1.58-8.4-4.28h-.11v14.83h-4.9v-29.54ZM520.41,147.97c0,.73.11,1.41.23,2.03.9,3.44,3.89,5.81,7.44,5.81,5.24,0,8.29-4.28,8.29-10.54,0-5.47-2.88-10.15-8.12-10.15-3.38,0-6.54,2.42-7.5,6.15-.17.62-.34,1.35-.34,2.03v4.68Z"/><path d="M550.34,146.33c.11,6.71,4.4,9.47,9.36,9.47,3.55,0,5.69-.62,7.55-1.41l.85,3.55c-1.75.79-4.74,1.69-9.08,1.69-8.4,0-13.42-5.53-13.42-13.76s4.85-14.71,12.8-14.71c8.91,0,11.27,7.84,11.27,12.85,0,1.01-.11,1.8-.17,2.31h-19.17ZM564.89,142.78c.06-3.16-1.3-8.06-6.88-8.06-5.02,0-7.22,4.62-7.61,8.06h14.49Z"/><path d="M575.83,140.3c0-3.21-.06-5.97-.23-8.51h4.34l.17,5.36h.22c1.24-3.66,4.23-5.98,7.55-5.98.56,0,.96.06,1.41.17v4.68c-.51-.11-1.01-.17-1.69-.17-3.5,0-5.98,2.65-6.65,6.37-.11.68-.23,1.47-.23,2.31v14.54h-4.9v-18.77Z"/><path d="M635.31,157.38c-2.2.79-6.54,2.09-11.67,2.09-5.75,0-10.49-1.47-14.21-5.02-3.27-3.16-5.3-8.23-5.3-14.15.06-11.33,7.84-19.62,20.57-19.62,4.4,0,7.84.96,9.47,1.75l-1.18,4c-2.03-.9-4.57-1.63-8.4-1.63-9.25,0-15.28,5.75-15.28,15.28s5.81,15.33,14.66,15.33c3.21,0,5.41-.45,6.54-1.01v-11.33h-7.72v-3.95h12.52v18.26Z"/><path d="M647.71,121.08v37.99h-4.9v-37.99h4.9Z"/><path d="M667.56,153.1c2.2,1.35,5.41,2.48,8.79,2.48,5.02,0,7.95-2.65,7.95-6.48,0-3.55-2.03-5.58-7.16-7.55-6.2-2.2-10.03-5.41-10.03-10.77,0-5.92,4.9-10.32,12.29-10.32,3.89,0,6.71.9,8.4,1.86l-1.35,4c-1.24-.68-3.78-1.8-7.22-1.8-5.19,0-7.16,3.1-7.16,5.69,0,3.55,2.31,5.3,7.55,7.33,6.43,2.48,9.7,5.58,9.7,11.16,0,5.86-4.34,10.94-13.3,10.94-3.66,0-7.67-1.07-9.69-2.43l1.24-4.12Z"/><path d="M718.7,151.63c0,2.82.06,5.3.22,7.44h-4.4l-.28-4.45h-.11c-1.3,2.2-4.17,5.07-9.02,5.07-4.28,0-9.41-2.37-9.41-11.95v-15.95h4.96v15.11c0,5.19,1.58,8.68,6.09,8.68,3.32,0,5.64-2.31,6.54-4.51.28-.73.45-1.63.45-2.54v-16.74h4.96v19.84Z"/><path d="M726.93,140.3c0-3.21-.06-5.97-.23-8.51h4.34l.17,5.36h.22c1.24-3.66,4.23-5.98,7.55-5.98.56,0,.96.06,1.41.17v4.68c-.51-.11-1.01-.17-1.69-.17-3.5,0-5.97,2.65-6.65,6.37-.11.68-.23,1.47-.23,2.31v14.54h-4.9v-18.77Z"/><path d="M768.42,131.79c-.11,1.97-.23,4.17-.23,7.5v15.84c0,6.26-1.24,10.09-3.89,12.46-2.65,2.48-6.48,3.27-9.92,3.27s-6.88-.79-9.07-2.25l1.24-3.78c1.8,1.13,4.62,2.14,8,2.14,5.07,0,8.79-2.65,8.79-9.53v-3.04h-.11c-1.52,2.54-4.45,4.57-8.68,4.57-6.77,0-11.61-5.75-11.61-13.3,0-9.25,6.03-14.49,12.29-14.49,4.74,0,7.33,2.48,8.51,4.74h.11l.23-4.12h4.34ZM763.29,142.56c0-.85-.06-1.58-.28-2.26-.9-2.87-3.33-5.24-6.93-5.24-4.74,0-8.12,4-8.12,10.32,0,5.35,2.71,9.81,8.06,9.81,3.04,0,5.81-1.92,6.88-5.07.28-.85.4-1.8.4-2.65v-4.9Z"/><path d="M779.2,146.33c.11,6.71,4.4,9.47,9.36,9.47,3.55,0,5.69-.62,7.55-1.41l.85,3.55c-1.75.79-4.74,1.69-9.08,1.69-8.4,0-13.42-5.53-13.42-13.76s4.85-14.71,12.8-14.71c8.91,0,11.27,7.84,11.27,12.85,0,1.01-.11,1.8-.17,2.31h-19.17ZM793.74,142.78c.06-3.16-1.3-8.06-6.88-8.06-5.02,0-7.22,4.62-7.61,8.06h14.49Z"/><path d="M804.68,140.3c0-3.21-.06-5.97-.23-8.51h4.34l.17,5.36h.22c1.24-3.66,4.23-5.98,7.55-5.98.56,0,.96.06,1.41.17v4.68c-.51-.11-1.01-.17-1.69-.17-3.5,0-5.98,2.65-6.65,6.37-.11.68-.23,1.47-.23,2.31v14.54h-4.9v-18.77Z"/><path d="M826.33,131.79l5.97,16.12c.62,1.8,1.3,3.95,1.75,5.58h.11c.51-1.63,1.07-3.72,1.75-5.69l5.41-16.01h5.24l-7.44,19.45c-3.55,9.36-5.98,14.15-9.36,17.08-2.42,2.14-4.85,2.99-6.09,3.21l-1.24-4.17c1.24-.39,2.87-1.18,4.34-2.42,1.35-1.07,3.04-2.99,4.17-5.52.22-.51.39-.9.39-1.18s-.11-.68-.34-1.3l-10.09-25.14h5.41Z"/></svg>