<?xml version="1.0" encoding="UTF-8"?><svg id="Layer_1" xmlns="http://www.w3.org/2000/svg" viewBox="0 0 220 220"><defs><style>.cls-1{fill:#fff;}</style></defs><path class="cls-1" d="M110,20.8c-49.19,0-89.2,40.02-89.2,89.2s40.01,89.2,89.2,89.2,89.2-40.02,89.2-89.2S159.19,20.8,110,20.8ZM110,34.27c41.76,0,75.73,33.98,75.73,75.74,0,16.54-5.34,31.84-14.37,44.31l-15.76-91.21-45.5,64.23-45.48-64.19-15.96,91.2c-9.04-12.48-14.4-27.79-14.4-44.34,0-41.76,33.97-75.74,75.73-75.74ZM60.14,166.93l12.18-69.62,37.78,53.33,37.75-53.29,12.02,69.58c-13.33,11.7-30.78,18.81-49.87,18.81s-36.53-7.11-49.86-18.81Z"/></svg>