<?xml version="1.0" encoding="UTF-8"?>
<svg data-bbox="53.667 254.382 972.661 571.276" viewBox="0 0 1080 1080" xmlns="http://www.w3.org/2000/svg" data-type="shape">
    <g>
        <path d="M1000.8 716.12c-3.95-3.32-11.66-1.67-10.35-7.1 1.11-4.62 6.97-.6 10.73-.52 7.49.15 14.17 3.24 20.98 5.82 2.39.9 4.52 2.57 4.12 5.38-.45 3.24-3.41 2.87-5.79 3.06-19.12 1.55-38.31 1.43-57.45 3.14-35.24 3.15-70.52 6.25-105.85 7.95-32.41 1.55-64.63 5.09-96.99 7.13-34.52 2.17-69.06 4.24-103.57 6.5-35.56 2.32-71 6.65-106.56 9.11-16.19 1.12-32.31 3.21-48.54 3.66-6.85.19-11.09 1.59-10.43 10.14.9 11.68-2.87 23.42-.21 35.22.53 2.33-.87 4.58-3.48 4.47-2.66-.11-4.35-1.95-4.27-4.89.28-11.39-.56-22.96 1.22-34.11 1.25-7.81-1.22-8.35-7.18-7.54-18.18 2.47-36.38 4.8-54.54 7.37-28.32 4-56.64 8-84.91 12.29-29.05 4.41-58.29 7.49-87.09 13.76-14.96 3.26-30.5 3.91-45.78 5.7-28.11 3.3-56.17 6.81-83.98 12.24-19.86 3.87-39.85 7.08-59.82 10.36-2.64.43-6.48 1.38-7.28-2.95-.84-4.54 3.21-4.25 5.83-5.06 44.21-13.57 89.71-21.79 134.82-31.48 12.52-2.69 25.53-3.84 38.8-6.13-.77-4.29-4.75-5.92-6.66-8.98-7.64-12.23-10.25-25.39-7.62-39.57 1.48-8 1.33-16.21 1.77-24.23.86-15.68 2.98-31.21 3.72-46.94-3.95 11.59-7.17 23.4-10.94 35.03-9.02 27.78-23.58 52.08-43.36 73.39-2.5 2.69-5.35 7.2-9.22 3.86-3.73-3.23-.74-7 1.76-10.6 10.6-15.28 25.81-26.86 33.71-44.45 5.67-12.62 10.49-25.51 14.77-38.53 14.52-44.16 22.91-90.01 35.98-134.58 5.85-19.94 10.93-40.15 19.16-59.34 1.06-2.48.48-6.9 5.19-5.2 4.5 1.62 3.64 4.87 2.16 8.62-5.83 14.84-10.94 29.94-15.71 45.17-11.08 35.39-18.4 71.55-24.47 108.11-5.3 31.85-6.05 63.99-8.58 96.01-1.18 14.88 2.15 29.14 16.19 38.22 2.76 1.78 5.3 2.53 8.97 2.17 21.27-2.09 42.23-6.1 62.96-10.87 14.8-3.41 29.51-.23 44.31-2.48 22.64-3.44 45.66-4.43 68.53-6.3 11.33-.93 22.68-1.46 34.02-2.25 7.01-.49 14-1.18 21-1.66 4.28-.29 4.08-3.3 4.46-6.37 2.74-21.95 4.12-44.06 7.95-65.9 7.43-42.31 16.39-84.25 28.4-125.51.9-3.1 2.16-6.1 3.56-10.02-11.49 3.09-22.43 4.55-33.88 2.64-17.01-2.84-26.51-13.53-32.22-28.5-5.43-14.23-5.34-14.51-16.01-3.94-14.98 14.84-31.55 27.69-48.87 39.6-4.63 3.19-9.75 5.67-14.61 8.53-3.01 1.77-6.25 1.82-9.47 1.13-2.8-.61-3.86-2.75-3.72-5.51.13-2.46 1.14-4.21 3.86-4.27 11.28-.24 19.58-6.98 28.36-12.79 17.65-11.69 33.65-25.28 47.79-41.04 1.08-1.2 2.04-2.52 2.95-3.86 1.74-2.58 2.45-7.04 6.56-6.02 3.91.97 5.38 4.74 6 8.76 1.28 8.36 4.4 16.08 8.05 23.71 4.54 9.5 11.91 14.88 22.05 15.51 9.13.56 18.29.63 27.55-.68 6.87-.97 9.36-4.83 10.94-10.1 17.77-59.66 39.47-117.89 64.02-175.05 12.04-28.03 25.69-55.41 45.14-79.19 6.86-8.38 13.91-17.3 25.58-20.43 6.04-1.62 8.92.28 10.03 5.75 2.6 12.86 2.35 25.79.74 38.78-1.57 12.63-.34 25.38-2.09 38.08-5.59 40.55-12.51 80.69-31.89 117.4-10.98 20.81-28.26 36.35-46.36 50.54-17.8 13.96-35.95 27.83-57.64 35.72-3.76 1.37-5.11 4.55-6.16 8.03-11.62 38.53-20.88 77.57-27.91 117.23-4.58 25.81-7.01 51.86-10.94 77.72-.84 5.52-1.1 9.5 7.06 8.64 21.19-2.25 42.47-3.55 63.65-6.23 19.54-2.48 39.27-3.51 58.89-5.38 19.88-1.89 39.74-4.01 59.6-6.06 15.56-1.61 31.14-3.08 46.68-4.95 30.28-3.66 60.53-7.55 90.42-13.71 4.41-.91 10.84-2.28 11.09-6.58.28-4.82-6.13-5.94-10.5-7.28-18.14-5.54-36.59-8.46-55.65-9.51-20.03-1.1-40.71-.65-59.29-10.64-2.96-1.59-5.2.09-7.53 1.38-9.2 5.06-18.78 6.69-29.45 6.47-8.66-.18-17.31 2.8-26.18-.15-1.51-.5-4.11 2.1-6.13 3.38-4.94 3.13-10.01 4.54-14.99.39-3.25-2.71-6.06-1.53-8.84.38-2.7 1.86-5.5 3.33-8.67 4.31-10.5 3.24-15.68.27-16.47-10.8-.32-4.45-1.44-3.89-4.76-3.33-9.25 1.55-15.13 9.06-23.35 12.56-7.11 3.03-14.31 5.08-21.76 5.7-5.09.42-9.95-1.69-12.43-7.2-3.02-6.7.53-12.3 5.38-14.22 12.85-5.08 25.7-12.46 40.54-5.05 7.01 3.49 14.2-1.04 21.27-2.1 2.87-.43 6-2.77 8.03.48 1.63 2.59.76 5.68-1.15 8.38-1.31 1.84-3.56 4.03-1.23 6.45 2.25 2.34 4.63-.05 6.79-.63 4.32-1.16 7.62-3.79 9.82-7.9 2.98-5.58 6.05-5.78 8.8-.27 1.59 3.19 2.77 6.19 6.83 5.25 4.15-.96 7.66-2.97 7.38-8.2-.04-.78.17-1.64.48-2.37 1.13-2.65 1.44-6.51 5.27-6.29 3.98.22 4.97 3.55 5.03 7.08.05 3.01-.29 6.41 4.05 6.61 3.89.18 8.13 1.32 11.09-2.63 1.29-1.72 2.48-3.51 3.86-5.16 2.9-3.46 6.6-5.08 10.83-3.03 4.62 2.24 1.57 6.09 1.1 10.15 4.65-1.24 9.12-1.9 13.1-3.67 2.47-1.1 6.86-2.56 3.89-7.11-1.67-2.56-1.61-4.71 1.24-5.99 2.35-1.05 4.73-.94 6.41 1.64 9.36 14.37 25.02 14.69 39.44 17.07 25.25 4.16 51.19 3.75 75.93 11.48 5.5 1.72 10.61 4.23 15.41 7.18 6.45 3.98 6.03 11.42-.32 15.9-3.42 2.41-7.21 3.47-11.26 4.2-28.42 5.14-57.07 8.6-85.78 11.56-1.95.2-3.82 1.14-5.63 2.36 89.44-9.34 179.2-13.93 269.7-20.59ZM536.37 534.46c7.18-2.82 12.52-5.71 17.78-9.07 18.24-11.66 36.19-23.73 52.27-38.25 15.17-13.7 27.69-29.42 36.11-48.38 7.4-16.66 12.19-34.02 16.66-51.58 9.35-36.72 11.81-74.13 11.73-111.8 0-4.12.18-9.82-3.21-11.96-4.41-2.79-7.47 2.92-11.04 4.98-2.52 1.46-4.68 3.75-6.57 6.02-19.56 23.46-34.26 49.82-46.5 77.69-13.17 29.98-25.16 60.41-36.22 91.21-10.68 29.72-21.15 59.51-31 91.14ZM264.63 787.22c-11.57-1.06-23.2-3.01-34.91-.45-4.74 1.04-9.5 1.95-14.27 2.85-29.54 5.56-59.09 11.1-88.64 16.65 46.12-4.8 92.07-10.55 137.82-19.05Zm155.35-21.04c-40.76 4.01-82.22 2.95-121.39 17.29 40.46-5.76 80.93-11.52 121.39-17.29Z"/>
        <path d="M258.33 717.59c-.14 4.88-5.66 9.75-1.18 13.63 4.26 3.68 10.22 2.01 15.59.71 11.12-2.68 20.31-8.84 28.63-16.21 7.28-6.45 4.7-16.74-4.39-20.75-14.43-6.37-34.93-.52-44.68 13.4-1.08 1.55-2.1 3.18-3.4 4.53-1.86 1.92-4.12 4.59-6.85 2.2-2.29-2-2.68-5.21-1.05-8.18 2.33-4.27 5.01-8.39 6.97-12.82 2.27-5.14 4.61-10.31 1.68-16.3-1.6-3.28-.1-6.94 3.54-7.67 3.77-.76 6.05 2.33 6.36 5.85.4 4.53.1 9.12.1 14.32a201.34 201.34 0 0 1 21.02-5.1c8.65-1.63 15.56.62 22.35 4.55 4.24 2.45 7.6 2.96 11.7.06 2.38-1.69 5.26-3.14 8.1-3.62 6.15-1.04 12.13-1.01 14.08 7.05.35 1.43.59 3.9 3.18 4.01 1.87-2.53-.32-4.21-.8-6.13-.6-2.4-1.46-5.04 1.53-6.31 3.18-1.35 5.07.63 6.39 3.32.48.97 1.08 1.91 1.42 2.92 1.63 4.82 3.69 9.42 9.73 9.29 6.18-.14 10.77-3.76 13.81-8.74 5.56-9.14 5.4-9.31 11.47-.87 2.89 4.02 7.09 4.56 11.45 4.72 2.22.08 3.44-.93 3.12-3.55-1.22-10.03 7.14-11.74 13.5-14.55 6.4-2.83 13.34-1.93 17.62 3.75 2.85 3.78 5.33 4.13 8.59 2.38 10.53-5.66 18.6-.64 26.61 5.53 2.13 1.64 2.57 3.58 1.61 5.67-1.17 2.53-3.55 1.9-5.69 1.4-.25-.06-.53-.19-.71-.37-10.16-9.86-20.49-5.79-31.17-.79-11.6 5.43-24.01 8.15-36.8 9-1.3.09-3.07.56-3.85-.08-8.36-6.81-14.21-1.79-21.27 3.07-5.7 3.92-13.21 5.51-19.32-.91-2.03-2.14-3.75-2.05-6.37-.57-7.05 3.99-14.25 7.74-22.75 7.74-4 0-5.91 3.54-8.41 5.91-11.86 11.25-25.19 19.61-41.93 20.94-5.67.45-11.5.08-15.55-4.73-3.6-4.27-2.55-9.11-.57-13.75 1.08-2.53 2.37-5.04 6.61-3.93Z"/>
    </g>
</svg>
